<svg xmlns="http://www.w3.org/2000/svg" id="cart" viewBox="0 0 33 31"><path d="M32.24,2.43a3.5,3.5,0,0,1-.71.44l-3.78,2c-.85,3.4-1.93,7.8-2.78,11.2.88,2.08,1.23,2.77,2.11,4.85.23.55.79,1.68.46,2.17a1.52,1.52,0,0,1-1.38.76c-7.54,0-14.16.23-21.7.23a1.85,1.85,0,0,1-1.57-.88c-.35-.56-.36-.6,0-1.17a2.18,2.18,0,0,1,1.84-.86H24.45c-.59-1.42-1.41-2.92-2-4.34a1.88,1.88,0,0,1-.06-1.2L25.28,4.13A1.84,1.84,0,0,1,26.15,3L31.08.34c.56-.3.88-.5,1.42-.17s.5.72.5,1.19S32.66,2,32.24,2.43ZM20.48,18.2a2.54,2.54,0,0,1-1.07,1.57,2.43,2.43,0,0,1-1.88.35l-14-3a2.47,2.47,0,0,1-1.86-2Q.86,10.48,0,5.8A2.52,2.52,0,0,1,2.17,2.92l.36,0H21.06a2.38,2.38,0,0,1,1.88.89A2.52,2.52,0,0,1,23.46,6ZM2.48,5.43l1.64,9.25,14,3q1.5-6.1,3-12.21ZM5.17,25.12a3,3,0,1,1-2.37,2.3A3,3,0,0,1,5.17,25.12Zm19.76,0a3,3,0,1,1-2.36,2.26A3,3,0,0,1,24.93,25.12Z"/></svg>