<svg xmlns="http://www.w3.org/2000/svg" id="instagram" viewBox="0 0 47.99 47.99"><path d="M30.85,24A6.86,6.86,0,1,1,24,17.14,6.87,6.87,0,0,1,30.85,24Zm3.7,0A10.55,10.55,0,1,0,24,34.55,10.54,10.54,0,0,0,34.55,24Zm2.89-11A2.46,2.46,0,1,0,35,15.48,2.46,2.46,0,0,0,37.44,13ZM24,7.12c3,0,9.43-.24,12.13.83A7,7,0,0,1,40,11.86c1.07,2.7.83,9.13.83,12.13s.24,9.43-.83,12.13A7,7,0,0,1,36.13,40c-2.7,1.07-9.13.83-12.13.83s-9.43.24-12.13-.83A7,7,0,0,1,8,36.13C6.88,33.42,7.12,27,7.12,24S6.88,14.57,8,11.86A7,7,0,0,1,11.86,8C14.57,6.88,21,7.12,24,7.12ZM44.56,24c0-2.84,0-5.65-.13-8.49-.16-3.29-.91-6.21-3.32-8.62s-5.33-3.16-8.62-3.32c-2.84-.16-5.65-.13-8.49-.13s-5.65,0-8.49.13c-3.29.16-6.21.91-8.62,3.32s-3.16,5.33-3.32,8.62c-.16,2.84-.13,5.65-.13,8.49s0,5.65.13,8.49c.16,3.29.91,6.21,3.32,8.62s5.33,3.16,8.62,3.32c2.84.16,5.65.13,8.49.13s5.65,0,8.49-.13c3.29-.16,6.21-.91,8.62-3.32s3.16-5.33,3.32-8.62C44.59,29.65,44.56,26.83,44.56,24Z"/></svg>