<svg xmlns="http://www.w3.org/2000/svg" id="linkedin" viewBox="0 0 47.99 47.99"><path d="M9.77,37.87V19.28H16V37.87Zm6.59-24.32a3.24,3.24,0,0,1-3.51,3.21h0a3.22,3.22,0,1,1,.08-6.43A3.21,3.21,0,0,1,16.36,13.55ZM32,37.87V27.93c0-2.52-.88-4.2-3.11-4.2A3.42,3.42,0,0,0,25.73,26a4.34,4.34,0,0,0-.19,1.5V37.87H19.36c.08-16.84,0-18.58,0-18.58h6.19V22h-.05a6.11,6.11,0,0,1,5.6-3.13c4.07,0,7.12,2.65,7.12,8.36V37.87ZM44.56,11.14a7.72,7.72,0,0,0-7.71-7.71H11.14a7.71,7.71,0,0,0-7.71,7.71V36.85a7.71,7.71,0,0,0,7.71,7.71H36.85a7.71,7.71,0,0,0,7.71-7.71Z"/></svg>