<svg xmlns="http://www.w3.org/2000/svg" id="twitter" viewBox="0 0 47.99 47.99"><path d="M37.7,16.34a10.83,10.83,0,0,1-2.81,2.92,6.47,6.47,0,0,1,0,.72,16,16,0,0,1-24.64,13.5,11,11,0,0,0,1.34.08,11.33,11.33,0,0,0,7-2.41,5.66,5.66,0,0,1-5.25-3.91,6.84,6.84,0,0,0,1,.11,4.69,4.69,0,0,0,1.37-.21,5.73,5.73,0,0,1-4.63-5.52v-.05a6.73,6.73,0,0,0,2.68.7,5.54,5.54,0,0,1-2.44-4.69,5.71,5.71,0,0,1,.78-2.84,16,16,0,0,0,11.62,5.89,5.12,5.12,0,0,1-.13-1.29,5.63,5.63,0,0,1,9.72-3.86A11.19,11.19,0,0,0,37,14.11a5.68,5.68,0,0,1-2.49,3.13A11.86,11.86,0,0,0,37.7,16.34Zm6.86-5.19a7.72,7.72,0,0,0-7.71-7.71H11.14a7.71,7.71,0,0,0-7.71,7.71V36.85a7.71,7.71,0,0,0,7.71,7.71H36.85a7.71,7.71,0,0,0,7.71-7.71Z"/></svg>