<svg xmlns="http://www.w3.org/2000/svg" id="youtube" viewBox="0 0 47.99 47.99"><path d="M19,30.21V16.74l13,6.77ZM24,7.12h0c-10.09,0-16.79.48-16.79.48a6.79,6.79,0,0,0-4.82,2,8.42,8.42,0,0,0-1.9,4.77A64.81,64.81,0,0,0,0,22.17v3.64a64.81,64.81,0,0,0,.48,7.77,8.55,8.55,0,0,0,1.9,4.77c1.82,1.9,4.23,1.85,5.3,2,0,0,3.83.38,16.31.48h0c10.1,0,16.79-.51,16.79-.51a6.85,6.85,0,0,0,4.82-2,8.55,8.55,0,0,0,1.9-4.77A64.81,64.81,0,0,0,48,25.82V22.17a64.81,64.81,0,0,0-.48-7.77,8.42,8.42,0,0,0-1.9-4.77,6.79,6.79,0,0,0-4.82-2S34.09,7.12,24,7.12Z"/></svg>